#!OML:ASF F:\VICON\USERDATA\INSTALL\rory3\rory3.ASF
:FULLY-SPECIFIED
:DEGREES
503
root -0.00940413 17.917 -0.80138 1.17431 -7.3756 3.73756
lowerback -0.949781 -1.78229 -4.75286
upperback 0.213308 -2.34378 2.70054
thorax 1.058 -1.21266 5.41471
lowerneck -24.718 1.94311 -9.48877
upperneck 7.18382 4.81932 5.15245
head 5.72235 2.49707 3.72584
rclavicle 1.08835e-014 -3.18055e-015
rhumerus -34.0785 -6.93949 -75.6225
rradius 34.4192
rwrist 19.657
rhand -21.7403 7.3479
rfingers 7.12502
rthumb 4.65952 -22.5809
lclavicle 1.08835e-014 -3.18055e-015
lhumerus 46.8808 0.449647 58.8246
lradius 99.5662
lwrist -4.60356
lhand -31.3634 12.3719
lfingers 7.12502
lthumb -4.63406 42.3012
rfemur -7.74237 6.45075 12.2986
rtibia 27.8672
rfoot -18.4824 -2.93601
rtoes 3.92703
lfemur 1.2465 -1.79111 -24.3345
ltibia 12.1475
lfoot -10.5392 3.0656
ltoes -12.2398
504
root -0.0109097 17.9172 -0.802154 1.19424 -7.34075 3.70188
lowerback -0.930287 -1.79731 -4.76047
upperback 0.203491 -2.36471 2.71296
thorax 1.0405 -1.22254 5.43226
lowerneck -24.7574 1.95641 -9.428
upperneck 7.03707 4.82423 5.13139
head 5.68215 2.50304 3.70735
rclavicle -2.35063e-014 -1.59028e-015
rhumerus -34.1173 -6.7362 -75.6786
rradius 34.4475
rwrist 19.4524
rhand -21.8101 6.97249
rfingers 7.12502
rthumb 4.59215 -22.9577
lclavicle -2.35063e-014 -1.59028e-015
lhumerus 47.1294 0.610076 58.6226
lradius 99.4026
lwrist -4.29286
lhand -31.3537 11.8223
lfingers 7.12502
lthumb -4.62463 41.7518
rfemur -7.75703 6.45654 12.3474
rtibia 27.8745
rfoot -18.4848 -2.96027
rtoes 4.14392
lfemur 1.21274 -1.81597 -24.2826
ltibia 12.1609
lfoot -10.5641 3.01954
ltoes -12.222
505
root -0.0127169 17.916 -0.80432 1.20171 -7.29581 3.70164
lowerback -0.940157 -1.8143 -4.81493
upperback 0.247079 -2.38638 2.72644
thorax 1.09674 -1.23657 5.47561
lowerneck -24.8436 1.9409 -9.42344
upperneck 6.76619 4.80837 5.14452
head 5.60806 2.50345 3.70491
rclavicle -4.38817e-014 -1.90833e-014
rhumerus -34.0302 -6.69218 -75.6714
rradius 34.4164
rwrist 19.3806
rhand -21.8378 6.45032
rfingers 7.12502
rthumb 4.56538 -23.4805
lclavicle -4.38817e-014 -1.90833e-014
lhumerus 47.4847 0.852761 58.4759
lradius 99.2149
lwrist -4.04055
lhand -31.6231 11.3662
lfingers 7.12502
lthumb -4.88477 41.2899
rfemur -7.76267 6.43876 12.3592
rtibia 27.8731
rfoot -18.4867 -2.97277
rtoes 4.40215
lfemur 1.17462 -1.83831 -24.2692
ltibia 12.1945
lfoot -10.5668 2.99419
ltoes -12.215
506
root -0.0135654 17.9167 -0.804863 1.2016 -7.2866 3.70767
lowerback -0.975175 -1.81907 -4.84388
upperback 0.301797 -2.39072 2.72149
thorax 1.17449 -1.24256 5.48459
lowerneck -24.9057 1.94069 -9.35555
upperneck 6.49573 4.8024 5.06774
head 5.53345 2.50222 3.66361
rclavicle 3.67752e-015 -1.27222e-014
rhumerus -33.9192 -6.71548 -75.6588
rradius 34.3309
rwrist 19.4029
rhand -21.861 6.41434
rfingers 7.12502
rthumb 4.54301 -23.5169
lclavicle 3.67752e-015 -1.27222e-014
lhumerus 47.8585 1.11462 58.4046
lradius 99.1139
lwrist -4.0708
lhand -31.5369 11.188
lfingers 7.12502
lthumb -4.80162 41.1136
rfemur -7.76358 6.44511 12.3621
rtibia 27.8681
rfoot -18.4792 -3.04042
rtoes 3.93312
lfemur 1.15902 -1.85981 -24.2728
ltibia 12.2126
lfoot -10.5663 3.00422
ltoes -12.3866
507
root -0.0136716 17.9174 -0.804628 1.20564 -7.30531 3.67717
lowerback -0.975961 -1.81126 -4.84287
upperback 0.336045 -2.38042 2.74115
thorax 1.20977 -1.23941 5.50426
lowerneck -25.0486 1.93224 -9.29503
upperneck 6.32765 4.79326 5.00224
head 5.5036 2.4983 3.63123
rclavicle 4.75592e-014 7.95139e-016
rhumerus -33.8699 -6.76745 -75.6157
rradius 34.3153
rwrist 19.4618
rhand -21.8861 6.63401
rfingers 7.12502
rthumb 4.51875 -23.2978
lclavicle 4.75592e-014 7.95139e-016
lhumerus 48.1933 1.40275 58.316
lradius 99.0282
lwrist -4.27658
lhand -31.1133 11.1892
lfingers 7.12502
lthumb -4.39254 41.1236
rfemur -7.77114 6.49205 12.3985
rtibia 27.8665
rfoot -18.4741 -3.0902
rtoes 3.72155
lfemur 1.16358 -1.84832 -24.2449
ltibia 12.2093
lfoot -10.5782 3.03083
ltoes -12.4937
508
root -0.0134833 17.9177 -0.802384 1.22747 -7.28865 3.71408
lowerback -1.03003 -1.82057 -4.87743
upperback 0.375959 -2.38988 2.72863
thorax 1.28353 -1.24751 5.50801
lowerneck -25.1202 1.90396 -9.30469
upperneck 6.01276 4.76129 5.03367
head 5.41358 2.49279 3.63424
rclavicle -3.77194e-014 2.38542e-014
rhumerus -33.8058 -6.78047 -75.6254
rradius 34.3188
rwrist 19.4668
rhand -21.9478 6.58355
rfingers 7.12502
rthumb 4.45915 -23.3495
lclavicle -3.77194e-014 2.38542e-014
lhumerus 48.5177 1.68435 58.1466
lradius 98.9352
lwrist -4.39929
lhand -31.0284 11.3596
lfingers 7.12502
lthumb -4.31061 41.2957
rfemur -7.77882 6.46603 12.3491
rtibia 27.8593
rfoot -18.479 -3.04682
rtoes 3.8343
lfemur 1.15377 -1.85401 -24.2895
ltibia 12.1948
lfoot -10.5678 3.02162
ltoes -12.3671
509
root -0.0137439 17.9178 -0.801546 1.26473 -7.22371 3.73279
lowerback -1.04964 -1.82803 -4.91207
upperback 0.396271 -2.3984 2.72388
thorax 1.31793 -1.25357 5.52146
lowerneck -25.1735 1.87925 -9.33837
upperneck 5.72058 4.73487 5.10912
head 5.32634 2.49251 3.65618
rclavicle 1.47598e-014 1.03368e-014
rhumerus -33.7831 -6.75141 -75.6196
rradius 34.3701
rwrist 19.4044
rhand -21.9136 6.70146
rfingers 7.12502
rthumb 4.4922 -23.2309
lclavicle 1.47598e-014 1.03368e-014
lhumerus 48.9366 1.88649 58.0554
lradius 98.7991
lwrist -4.3728
lhand -31.091 11.3725
lfingers 7.12502
lthumb -4.37096 41.3074
rfemur -7.79612 6.3992 12.3212
rtibia 27.8512
rfoot -18.502 -3.01719
rtoes 4.10364
lfemur 1.12784 -1.8687 -24.3029
ltibia 12.1619
lfoot -10.5341 2.9662
ltoes -12.2546
510
root -0.0142256 17.9182 -0.802238 1.28579 -7.16365 3.70618
lowerback -0.946641 -1.82249 -4.89325
upperback 0.345352 -2.39561 2.71679
thorax 1.20598 -1.24738 5.50775
lowerneck -25.2575 1.87196 -9.34312
upperneck 5.59518 4.7238 5.19561
head 5.29682 2.49777 3.68332
rclavicle 3.28492e-014 -3.18055e-015
rhumerus -33.9101 -6.70941 -75.6003
rradius 34.4886
rwrist 19.2708
rhand -21.7554 6.93749
rfingers 7.12502
rthumb 4.64497 -22.9916
lclavicle 3.28492e-014 -3.18055e-015
lhumerus 49.332 1.99898 57.9138
lradius 98.5548
lwrist -4.29109
lhand -31.0704 11.5411
lfingers 7.12502
lthumb -4.35112 41.4764
rfemur -7.8037 6.36944 12.362
rtibia 27.8457
rfoot -18.4887 -3.11207
rtoes 3.74885
lfemur 1.11461 -1.87829 -24.2649
ltibia 12.1224
lfoot -10.4746 2.88963
ltoes -12.302
511
root -0.0143001 17.9187 -0.801918 1.29767 -7.15548 3.70408
lowerback -0.870506 -1.80757 -4.90575
upperback 0.294272 -2.3788 2.71116
thorax 1.10852 -1.23484 5.51296
lowerneck -25.2104 1.87207 -9.35292
upperneck 5.3486 4.71598 5.25665
head 5.20948 2.50398 3.69745
rclavicle -1.33186e-014 1.59028e-014
rhumerus -33.9804 -6.73148 -75.5611
rradius 34.4774
rwrist 19.2246
rhand -21.7254 7.04431
rfingers 7.12502
rthumb 4.67392 -22.8841
lclavicle -1.33186e-014 1.59028e-014
lhumerus 49.6594 2.14851 57.7723
lradius 98.3389
lwrist -4.06492
lhand -31.1673 11.3223
lfingers 7.12502
lthumb -4.44468 41.2557
rfemur -7.80807 6.36162 12.3629
rtibia 27.8326
rfoot -18.4711 -3.11001
rtoes 3.56322
lfemur 1.10405 -1.88476 -24.2657
ltibia 12.1073
lfoot -10.449 2.88735
ltoes -12.4096
512
root -0.0145312 17.9183 -0.801046 1.28842 -7.13003 3.70228
lowerback -0.854858 -1.80015 -4.91054
upperback 0.328474 -2.3691 2.6903
thorax 1.13305 -1.23146 5.49399
lowerneck -25.2167 1.8515 -9.3988
upperneck 5.02826 4.69037 5.37964
head 5.10545 2.50776 3.73539
rclavicle 2.78299e-014 -3.97569e-015
rhumerus -33.8702 -6.80184 -75.5641
rradius 34.3718
rwrist 19.2137
rhand -21.6872 7.01407
rfingers 7.12502
rthumb 4.71084 -22.9136
lclavicle 2.78299e-014 -3.97569e-015
lhumerus 50.0306 2.35148 57.6342
lradius 98.2145
lwrist -3.96644
lhand -31.3631 10.7549
lfingers 7.12502
lthumb -4.63374 40.6842
rfemur -7.76678 6.33617 12.3662
rtibia 27.8117
rfoot -18.4898 -3.06862
rtoes 3.89248
lfemur 1.12493 -1.9266 -24.2603
ltibia 12.11
lfoot -10.4722 2.90781
ltoes -12.3055
513
root -0.0147094 17.9207 -0.800003 1.29346 -7.15497 3.69736
lowerback -0.872675 -1.79084 -4.91959
upperback 0.352933 -2.35568 2.68793
thorax 1.16682 -1.2264 5.49601
lowerneck -25.2089 1.85126 -9.48255
upperneck 4.74878 4.70149 5.51068
head 5.00883 2.52811 3.78605
rclavicle 1.56046e-014 -1.59028e-014
rhumerus -33.7939 -6.86043 -75.5459
rradius 34.3167
rwrist 19.2162
rhand -21.548 7.0054
rfingers 7.12502
rthumb 4.8452 -22.9192
lclavicle 1.56046e-014 -1.59028e-014
lhumerus 50.3353 2.56402 57.5092
lradius 98.1454
lwrist -4.06477
lhand -31.3073 10.8953
lfingers 7.12502
lthumb -4.57986 40.8258
rfemur -7.77573 6.36338 12.3727
rtibia 27.8088
rfoot -18.5013 -3.10549
rtoes 3.59141
lfemur 1.14957 -1.883 -24.2494
ltibia 12.0836
lfoot -10.5049 2.88818
ltoes -12.3039
514
root -0.0148073 17.9208 -0.801704 1.30418 -7.22061 3.61971
lowerback -0.837371 -1.76891 -4.8568
upperback 0.355695 -2.32886 2.71151
thorax 1.14471 -1.21206 5.48683
lowerneck -25.1768 1.82789 -9.58671
upperneck 4.44192 4.68963 5.6169
head 4.90199 2.53495 3.82837
rclavicle -7.8023e-015 -9.54166e-015
rhumerus -33.7957 -6.84915 -75.52
rradius 34.3327
rwrist 19.2732
rhand -21.437 7.06972
rfingers 7.12502
rthumb 4.95245 -22.8524
lclavicle -7.8023e-015 -9.54166e-015
lhumerus 50.6094 2.77539 57.4184
lradius 98.0685
lwrist -4.0435
lhand -31.3155 11.1517
lfingers 7.12502
lthumb -4.58775 41.082
rfemur -7.81084 6.44779 12.4627
rtibia 27.8199
rfoot -18.4882 -3.13672
rtoes 3.28566
lfemur 1.14673 -1.91378 -24.1728
ltibia 12.042
lfoot -10.493 2.99361
ltoes -12.3298
515
root -0.0151685 17.9185 -0.805363 1.3005 -7.25328 3.65851
lowerback -0.70983 -1.76704 -4.93988
upperback 0.330095 -2.33101 2.72631
thorax 1.051 -1.21042 5.55423
lowerneck -25.2508 1.7957 -9.62426
upperneck 4.22961 4.66713 5.60949
head 4.84548 2.5274 3.82678
rclavicle -3.56322e-014 3.10104e-014
rhumerus -33.8298 -6.72847 -75.4871
rradius 34.3817
rwrist 19.3387
rhand -21.4386 7.04052
rfingers 7.12502
rthumb 4.95086 -22.8816
lclavicle -3.56322e-014 3.10104e-014
lhumerus 50.8551 3.05009 57.3355
lradius 97.9613
lwrist -4.03604
lhand -31.3637 10.8702
lfingers 7.12502
lthumb -4.63437 40.7995
rfemur -7.84359 6.48772 12.4228
rtibia 27.8378
rfoot -18.4759 -3.15038
rtoes 3.23497
lfemur 1.10515 -1.91587 -24.2071
ltibia 12.0174
lfoot -10.4714 3.01724
ltoes -11.9601
